<svg id="logo" xmlns="http://www.w3.org/2000/svg" width="290" height="90">
  <g transform="matrix(0.7777777777777778,0,0,0.7777777777777778,215.11111111111111,6.10722213321262)">
    <path xmlns="http://www.w3.org/2000/svg" fill="#ffffff" d="M90,5.005H10c-2.761,0-5,2.239-5,5v80c0,2.761,2.239,5,5,5h80c2.761,0,5-2.239,5-5v-80  C95,7.244,92.761,5.005,90,5.005z M47,85c0,1.657-1.343,3-3,3H15c-1.657,0-3-1.343-3-3V68.958c0-1.657,1.343-3,3-3h29  c1.657,0,3,1.343,3,3V85z M47,58c0,1.657-1.343,3-3,3H15c-1.657,0-3-1.343-3-3V26.011c0-1.657,1.343-3,3-3h29c1.657,0,3,1.343,3,3  V58z M88,85.016c0,1.657-1.343,3-3,3H56c-1.657,0-3-1.343-3-3V26.011c0-1.657,1.343-3,3-3h29c1.657,0,3,1.343,3,3V85.016z"></path>
  </g>
  <g fill="#ffffff" transform="matrix(2.6999997216302285,0,0,2.6999997216302285,-3.2399991509721966,4.377995946936121)">
    <path d="M10.26 24 l-4.34 -6 l-1.72 1.96 l0 4.04 l-3 0 l0 -14 l3 0 l0 6.1 l5.18 -6.1 l3.6 0 l-5.26 5.96 l5.9 8.04 l-3.36 0 z M22.840000000000003 13.6 l2.86 0 l0 10.4 l-2.86 0 l0 -1.28 c-0.06 0.42 -1.08 1.48 -2.88 1.48 c-2.38 0 -5.14 -1.72 -5.14 -5.42 c0 -3.58 2.76 -5.36 5.14 -5.36 c1.8 0 2.82 1.12 2.88 1.34 l0 -1.16 z M20.36 21.66 c1.4 0 2.62 -0.96 2.62 -2.88 c0 -1.86 -1.22 -2.82 -2.62 -2.82 c-1.44 0 -2.76 0.98 -2.76 2.82 c0 1.9 1.32 2.88 2.76 2.88 z M33.96 13.44 c1.98 0 3.94 1.3 3.94 4.58 l0 5.98 l-2.86 0 l0 -5.78 c0 -1.7 -0.66 -2.28 -1.76 -2.28 c-1.52 0 -2.42 1.44 -2.64 2.16 l0 5.9 l-2.86 0 l0 -10.4 l2.86 0 l0 1.92 c0.2 -0.54 1.32 -2.08 3.32 -2.08 z M45.580000000000005 13.42 c2.38 0 5.14 1.78 5.14 5.36 c0 3.7 -2.76 5.42 -5.14 5.42 c-1.8 0 -2.82 -1.06 -2.88 -1.48 l0 1.28 l-2.86 0 l0 -10.4 l0 -3.74 l2.86 0 l0 4.9 c0.06 -0.22 1.08 -1.34 2.88 -1.34 z M45.18000000000001 21.66 c1.44 0 2.76 -0.98 2.76 -2.88 c0 -1.84 -1.32 -2.82 -2.76 -2.82 c-1.4 0 -2.62 0.96 -2.62 2.82 c0 1.92 1.22 2.88 2.62 2.88 z M60.14 13.6 l2.86 0 l0 10.4 l-2.86 0 l0 -1.28 c-0.06 0.42 -1.08 1.48 -2.88 1.48 c-2.38 0 -5.14 -1.72 -5.14 -5.42 c0 -3.58 2.76 -5.36 5.14 -5.36 c1.8 0 2.82 1.12 2.88 1.34 l0 -1.16 z M57.660000000000004 21.66 c1.4 0 2.62 -0.96 2.62 -2.88 c0 -1.86 -1.22 -2.82 -2.62 -2.82 c-1.44 0 -2.76 0.98 -2.76 2.82 c0 1.9 1.32 2.88 2.76 2.88 z M71.26 13.44 c1.98 0 3.94 1.3 3.94 4.58 l0 5.98 l-2.86 0 l0 -5.78 c0 -1.7 -0.66 -2.28 -1.76 -2.28 c-1.52 0 -2.42 1.44 -2.64 2.16 l0 5.9 l-2.86 0 l0 -10.4 l2.86 0 l0 1.92 c0.2 -0.54 1.32 -2.08 3.32 -2.08 z"></path>
  </g>
</svg>
